<svg xmlns="http://www.w3.org/2000/svg" width="24" height="24" viewBox="0 0 24 24">
    <g fill="none" fill-rule="evenodd">
        <g fill-rule="nonzero">
            <g>
                <g>
                    <g fill="#3D3D3D">
                        <path d="M13 1.625C6.718 1.625 1.625 6.718 1.625 13S6.718 24.375 13 24.375 24.375 19.282 24.375 13 19.282 1.625 13 1.625zm0 20.82c-5.215 0-9.445-4.23-9.445-9.445S7.785 3.555 13 3.555s9.445 4.23 9.445 9.445-4.23 9.445-9.445 9.445z" transform="translate(-38 -611) translate(37 610)"/>
                        <path d="M11.781 8.531c0 .673.546 1.219 1.219 1.219s1.219-.546 1.219-1.219S13.673 7.312 13 7.312s-1.219.546-1.219 1.22zm1.828 2.844h-1.218c-.112 0-.204.091-.204.203v6.906c0 .112.092.203.204.203h1.218c.112 0 .204-.09.204-.203v-6.906c0-.112-.092-.203-.204-.203z" transform="translate(-38 -611) translate(37 610)"/>
                    </g>
                    <path d="M0 0H26V26H0z" transform="translate(-38 -611) translate(37 610)"/>
                </g>
            </g>
        </g>
    </g>
</svg>
