<svg xmlns="http://www.w3.org/2000/svg" width="25" height="28" viewBox="0 0 25 28">
    <g fill="none" fill-rule="evenodd">
        <g fill-rule="nonzero">
            <g>
                <g>
                    <g fill="#3D3D3D">
                        <path d="M26.01 18.397l-2.448-2.447v-4.169c-.006-4.66-3.522-8.567-8.156-9.062V.906h-1.812V2.72c-4.618.526-8.118 4.415-8.156 9.062v4.169L2.99 18.397c-.18.161-.279.393-.272.634v2.719c-.016.245.074.485.247.659.174.173.414.263.659.247h6.344c0 2.503 2.028 4.532 4.531 4.532 2.503 0 4.531-2.03 4.531-4.532h6.344c.245.016.485-.074.659-.247.173-.174.263-.414.247-.659v-2.719c.007-.24-.093-.473-.272-.634zM14.5 25.375c-1.502 0-2.719-1.217-2.719-2.719h5.438c0 1.502-1.217 2.719-2.719 2.719zm9.969-4.531H4.53v-1.45l2.447-2.447c.18-.162.278-.393.272-.634V11.78c0-4.004 3.246-7.25 7.25-7.25s7.25 3.246 7.25 7.25v4.531c-.006.242.093.473.272.635l2.447 2.447v1.45z" transform="translate(-35 -412) translate(33 412)"/>
                    </g>
                    <path d="M0 0H29V29H0z" transform="translate(-35 -412) translate(33 412)"/>
                </g>
            </g>
        </g>
    </g>
</svg>
