<svg xmlns="http://www.w3.org/2000/svg" width="23" height="23" viewBox="0 0 23 23">
    <g fill="none" fill-rule="evenodd">
        <g>
            <g>
                <g>
                    <g fill="#3D3D3D">
                        <g>
                            <path d="M15.625 8.333c0 2.302-1.865 4.167-4.167 4.167-2.3 0-4.166-1.865-4.166-4.167 0-2.3 1.865-4.166 4.166-4.166 2.302 0 4.167 1.865 4.167 4.166zm-2.083 0c0 1.15-.933 2.084-2.084 2.084-1.15 0-2.083-.933-2.083-2.084 0-1.15.933-2.083 2.083-2.083 1.15 0 2.084.933 2.084 2.083z" transform="translate(-37 -465) translate(36 464) translate(1.042 1.042)"/>
                            <path d="M11.458 0C5.13 0 0 5.13 0 11.458s5.13 11.459 11.458 11.459 11.459-5.13 11.459-11.459C22.917 5.13 17.787 0 11.458 0zM2.083 11.458c0 2.177.743 4.182 1.988 5.773 1.772-2.327 4.53-3.692 7.455-3.69 2.886-.002 5.612 1.327 7.388 3.603 2.478-3.251 2.565-7.733.213-11.077-2.351-3.344-6.599-4.779-10.496-3.546-3.898 1.233-6.547 4.85-6.548 8.937zm9.375 9.375c-2.152.004-4.239-.737-5.908-2.095 1.364-1.952 3.595-3.115 5.976-3.113 2.35-.002 4.557 1.13 5.926 3.042-1.682 1.402-3.803 2.17-5.994 2.166z" transform="translate(-37 -465) translate(36 464) translate(1.042 1.042)"/>
                        </g>
                    </g>
                    <path fill-rule="nonzero" d="M0 0H25V25H0z" transform="translate(-37 -465) translate(36 464)"/>
                </g>
            </g>
        </g>
    </g>
</svg>
