<svg xmlns="http://www.w3.org/2000/svg" width="26" height="26" viewBox="0 0 26 26">
    <g fill="none" fill-rule="evenodd">
        <g>
            <g>
                <g>
                    <g stroke="#FF7500" stroke-linecap="round" stroke-linejoin="round" stroke-width="2">
                        <g>
                            <path d="M0 12l2.667-2.667m0 0L12 0l9.333 9.333m-18.666 0v13.334C2.667 23.403 3.264 24 4 24h4M21.333 9.333L24 12m-2.667-2.667v13.334c0 .736-.597 1.333-1.333 1.333h-4m-8 0c.736 0 1.333-.597 1.333-1.333v-5.334c0-.736.597-1.333 1.334-1.333h2.666c.737 0 1.334.597 1.334 1.333v5.334c0 .736.597 1.333 1.333 1.333m-8 0h8" transform="translate(-32 -678) translate(27.5 675) translate(1.5) translate(4 4)"/>
                        </g>
                    </g>
                    <path fill-rule="nonzero" d="M0 0H32V32H0z" transform="translate(-32 -678) translate(27.5 675) translate(1.5)"/>
                </g>
            </g>
        </g>
    </g>
</svg>
