<svg xmlns="http://www.w3.org/2000/svg" width="22" height="26" viewBox="0 0 22 26">
    <g fill="none" fill-rule="evenodd">
        <g fill-rule="nonzero">
            <g>
                <g>
                    <g fill="#3D3D3D">
                        <path d="M12.375 26.539v-4.05C6.739 22.196 2.25 17.516 2.25 11.812c0-5.894 4.793-10.687 10.688-10.687 5.894 0 10.687 4.793 10.687 10.688 0 5.568-3.87 11.17-9.641 13.95l-1.609.776zm.563-23.164c-4.658 0-8.438 3.78-8.438 8.438 0 4.657 3.78 8.437 8.438 8.437h1.687v2.587c4.095-2.587 6.75-6.84 6.75-11.024 0-4.658-3.78-8.438-8.438-8.438zm-1.126 12.938h2.25v2.25h-2.25v-2.25zm2.25-1.688h-2.25c0-3.656 3.376-3.375 3.376-5.625 0-1.237-1.013-2.25-2.25-2.25-1.238 0-2.25 1.013-2.25 2.25h-2.25c0-2.486 2.013-4.5 4.5-4.5 2.486 0 4.5 2.014 4.5 4.5 0 2.813-3.375 3.094-3.375 5.625z" transform="translate(-39 -514) translate(37 513)"/>
                    </g>
                    <path d="M0 0H27V27H0z" transform="translate(-39 -514) translate(37 513)"/>
                </g>
            </g>
        </g>
    </g>
</svg>
