<svg xmlns="http://www.w3.org/2000/svg" width="126" height="104" viewBox="0 0 126 104">
    <g fill="none" fill-rule="evenodd">
        <g fill="#FFF" fill-rule="nonzero">
            <path d="M143 24c2.761 0 5 2.239 5 5v58l-.004.17-.002.155c-.075 3.867-.861 7.504-2.359 10.91-1.576 3.584-3.689 6.72-6.338 9.409-2.648 2.689-5.738 4.833-9.27 6.433-3.532 1.6-7.315 2.4-11.351 2.4-4.415 0-8.482-1.023-12.203-3.072-3.72-2.048-6.78-4.8-9.176-8.257-3.153 6.785-7.82 12.29-14 16.515-6.18 4.225-13.18 6.337-21 6.337-5.55 0-10.752-1.088-15.608-3.265-4.856-2.176-9.112-5.153-12.77-8.93-3.658-3.776-6.559-8.16-8.703-13.154-2.123-4.944-3.195-10.14-3.216-15.587V29c0-2.761 2.239-5 5-5s5 2.239 5 5v31.182c.615-.715 1.255-1.41 1.919-2.084 3.658-3.712 7.914-6.657 12.77-8.833C51.545 47.088 56.748 46 62.297 46c7.82 0 14.82 2.08 21 6.241s10.847 9.57 14 16.227c2.397-3.456 5.455-6.209 9.176-8.257 3.72-2.049 7.851-3.073 12.392-3.073 4.036 0 7.82.768 11.351 2.305 2.891 1.257 5.486 2.9 7.785 4.93L138 29c0-2.761 2.239-5 5-5zM61.189 53.455c-3.817 0-7.418.712-10.804 2.136-3.386 1.424-6.371 3.374-8.957 5.85-2.585 2.477-4.617 5.387-6.094 8.73-1.478 3.344-2.216 6.935-2.216 10.774 0 3.838.738 7.491 2.216 10.959 1.477 3.467 3.509 6.5 6.094 9.101 2.586 2.6 5.571 4.644 8.957 6.13 3.386 1.486 6.987 2.229 10.804 2.229 3.693 0 7.202-.743 10.526-2.23 3.325-1.485 6.218-3.467 8.68-5.943 2.463-2.477 4.433-5.418 5.91-8.823 1.477-3.405 2.278-7.027 2.4-10.866 0-3.963-.738-7.647-2.215-11.052-1.478-3.405-3.448-6.377-5.91-8.916-2.462-2.538-5.356-4.52-8.68-5.943-3.324-1.424-6.895-2.136-10.711-2.136zm56.335 9.318c-2.212 0-4.3.475-6.265 1.425-1.966.951-3.655 2.275-5.068 3.972-1.413 1.697-2.518 3.7-3.317 6.009-.798 2.308-1.198 4.752-1.198 7.332 0 5.296 1.505 9.708 4.515 13.239 3.01 3.53 6.787 5.295 11.333 5.295 2.334 0 4.576-.475 6.726-1.425 2.15-.95 4.023-2.24 5.62-3.87 1.597-1.63 2.856-3.598 3.777-5.907.922-2.308 1.382-4.752 1.382-7.332s-.46-5.024-1.382-7.332c-.921-2.309-2.18-4.312-3.777-6.009s-3.47-3.021-5.62-3.972c-2.15-.95-4.392-1.425-6.726-1.425z" transform="translate(-22 -24)"/>
        </g>
    </g>
</svg>
