<svg xmlns="http://www.w3.org/2000/svg" width="92" height="76" viewBox="0 0 92 76">
    <g fill="none" fill-rule="evenodd">
        <g fill="#FF7500" fill-rule="nonzero">
            <path d="M248.5 30c1.933 0 3.5 1.567 3.5 3.5v42.289c0 2.998-.576 5.808-1.727 8.431-1.15 2.623-2.693 4.918-4.627 6.885-1.934 1.968-4.19 3.537-6.77 4.708-2.578 1.17-5.34 1.756-8.287 1.756-3.224 0-6.194-.75-8.91-2.248-2.717-1.499-4.95-3.513-6.7-6.042-2.302 4.965-5.71 8.993-10.222 12.084-4.513 3.091-9.624 4.637-15.334 4.637-4.052 0-7.85-.796-11.396-2.389-3.546-1.592-6.654-3.77-9.324-6.534-2.671-2.763-4.79-5.972-6.355-9.625-1.452-3.39-2.231-6.94-2.336-10.653-.008-.099-.012-.198-.012-.299v-43c0-1.933 1.567-3.5 3.5-3.5s3.5 1.567 3.5 3.5v23.234c.54-.649 1.108-1.276 1.703-1.882 2.67-2.716 5.778-4.87 9.324-6.463 3.546-1.593 7.344-2.389 11.396-2.389 5.71 0 10.821 1.522 15.334 4.567 4.512 3.044 7.92 7.002 10.222 11.873 1.75-2.529 3.983-4.543 6.7-6.042 2.716-1.499 5.732-2.248 9.048-2.248 2.947 0 5.71.562 8.288 1.686 2.238.976 4.233 2.269 5.985 3.88V33.5c0-1.933 1.567-3.5 3.5-3.5zm-59.886 21.455c-2.787 0-5.416.52-7.888 1.563-2.473 1.042-4.653 2.469-6.54 4.28-1.888 1.813-3.371 3.942-4.45 6.388-1.079 2.447-1.618 5.074-1.618 7.883 0 2.81.539 5.482 1.618 8.019 1.079 2.537 2.562 4.757 4.45 6.66 1.887 1.902 4.067 3.397 6.54 4.485 2.472 1.087 5.101 1.63 7.888 1.63 2.697 0 5.259-.543 7.686-1.63 2.427-1.088 4.54-2.537 6.338-4.35 1.798-1.812 3.236-3.963 4.315-6.455 1.079-2.492 1.663-5.142 1.753-7.951 0-2.9-.54-5.595-1.618-8.087-1.079-2.491-2.517-4.666-4.315-6.523-1.798-1.858-3.91-3.307-6.338-4.35-2.427-1.041-5.034-1.562-7.821-1.562zm41.133 6.818c-1.614 0-3.139.347-4.574 1.043-1.435.695-2.669 1.664-3.7 2.906-1.032 1.242-1.839 2.707-2.422 4.396-.583 1.69-.875 3.478-.875 5.366 0 3.874 1.1 7.103 3.297 9.687 2.197 2.583 4.956 3.874 8.274 3.874 1.705 0 3.342-.347 4.911-1.043 1.57-.695 2.938-1.64 4.104-2.831 1.166-1.193 2.086-2.633 2.758-4.322.673-1.69 1.01-3.478 1.01-5.365 0-1.888-.337-3.676-1.01-5.366-.672-1.689-1.592-3.154-2.758-4.396s-2.534-2.21-4.104-2.906c-1.57-.696-3.206-1.043-4.91-1.043z" transform="translate(-160 -30)"/>
        </g>
    </g>
</svg>
