<svg xmlns="http://www.w3.org/2000/svg" width="22" height="22" viewBox="0 0 22 22">
    <g fill="none" fill-rule="evenodd">
        <g fill-rule="nonzero">
            <g>
                <g>
                    <g fill="#FF7500">
                        <path d="M8 21H4c-.552 0-1-.448-1-1v-4c0-.552-.448-1-1-1s-1 .448-1 1v4c0 1.657 1.343 3 3 3h4c.552 0 1-.448 1-1s-.448-1-1-1zm14-6c-.552 0-1 .448-1 1v4c0 .552-.448 1-1 1h-4c-.552 0-1 .448-1 1s.448 1 1 1h4c1.657 0 3-1.343 3-3v-4c0-.552-.448-1-1-1zM20 1h-4c-.552 0-1 .448-1 1s.448 1 1 1h4c.552 0 1 .448 1 1v4c0 .552.448 1 1 1s1-.448 1-1V4c0-1.657-1.343-3-3-3zM2 9c.552 0 1-.448 1-1V4c0-.552.448-1 1-1h4c.552 0 1-.448 1-1s-.448-1-1-1H4C2.343 1 1 2.343 1 4v4c0 .265.105.52.293.707C1.48 8.895 1.735 9 2 9zm8-4H6c-.552 0-1 .448-1 1v4c0 .552.448 1 1 1h4c.552 0 1-.448 1-1V6c0-.552-.448-1-1-1zM9 9H7V7h2v2zm5 2h4c.552 0 1-.448 1-1V6c0-.552-.448-1-1-1h-4c-.552 0-1 .448-1 1v4c0 .552.448 1 1 1zm1-4h2v2h-2V7zm-5 6H6c-.552 0-1 .448-1 1v4c0 .552.448 1 1 1h4c.552 0 1-.448 1-1v-4c0-.552-.448-1-1-1zm-1 4H7v-2h2v2zm5-1c.552 0 1-.448 1-1 .552 0 1-.448 1-1s-.448-1-1-1h-1c-.552 0-1 .448-1 1v1c0 .552.448 1 1 1zm4-3c-.552 0-1 .448-1 1v3c-.552 0-1 .448-1 1s.448 1 1 1h1c.552 0 1-.448 1-1v-4c0-.552-.448-1-1-1zm-4 4c-.552 0-1 .448-1 1s.448 1 1 1 1-.448 1-1-.448-1-1-1z" transform="translate(-189 -680) translate(180 679) translate(8)"/>
                    </g>
                    <path d="M0 0H24V24H0z" transform="translate(-189 -680) translate(180 679) translate(8)"/>
                </g>
            </g>
        </g>
    </g>
</svg>
