<svg xmlns="http://www.w3.org/2000/svg" width="82" height="68" viewBox="0 0 82 68">
    <g fill="none" fill-rule="evenodd">
        <g fill="#FFF" fill-rule="nonzero">
            <path d="M244 16c1.657 0 3 1.343 3 3v37c0 .072-.003.143-.007.214.004.198.007.396.007.596 0 2.698-.513 5.227-1.539 7.588-1.026 2.36-2.4 4.426-4.125 6.197-1.723 1.77-3.734 3.183-6.033 4.236-2.298 1.054-4.76 1.581-7.387 1.581-2.873 0-5.52-.674-7.942-2.023-2.421-1.35-4.411-3.162-5.971-5.438-2.052 4.468-5.09 8.093-9.111 10.876C200.87 82.609 196.314 84 191.225 84c-3.611 0-6.997-.717-10.157-2.15-3.16-1.433-5.93-3.393-8.311-5.88-2.38-2.488-4.269-5.375-5.664-8.663-1.383-3.259-2.08-6.683-2.093-10.272V19c0-1.657 1.343-3 3-3s3 1.343 3 3v20.957c.552-.69 1.138-1.354 1.757-1.99 2.38-2.445 5.15-4.384 8.31-5.817 3.16-1.433 6.547-2.15 10.158-2.15 5.09 0 9.645 1.37 13.667 4.11s7.059 6.302 9.111 10.686c1.56-2.276 3.55-4.089 5.971-5.438 2.422-1.349 5.11-2.023 8.065-2.023 2.627 0 5.09.506 7.387 1.517 2.098.924 3.957 2.163 5.576 3.719L241 19c0-1.657 1.343-3 3-3zm-53.496 18.91c-2.484 0-4.828.468-7.031 1.406-2.204.938-4.147 2.222-5.83 3.853-1.682 1.63-3.004 3.547-3.965 5.749-.962 2.202-1.443 4.566-1.443 7.094 0 2.528.481 4.934 1.443 7.217.961 2.284 2.283 4.281 3.966 5.994 1.682 1.712 3.625 3.058 5.829 4.036 2.203.979 4.547 1.468 7.03 1.468 2.405 0 4.688-.489 6.852-1.468 2.163-.978 4.046-2.283 5.648-3.914 1.603-1.63 2.885-3.567 3.846-5.81.962-2.243 1.483-4.628 1.563-7.156 0-2.61-.481-5.035-1.442-7.278-.962-2.242-2.244-4.2-3.846-5.871-1.603-1.672-3.486-2.976-5.65-3.914-2.163-.938-4.486-1.407-6.97-1.407zm36.662 6.135c-1.439 0-2.798.313-4.077.94-1.28.625-2.379 1.497-3.298 2.615-.92 1.118-1.639 2.437-2.159 3.957-.52 1.52-.78 3.13-.78 4.828 0 3.488.98 6.394 2.939 8.719 1.959 2.324 4.417 3.487 7.375 3.487 1.52 0 2.978-.313 4.377-.939 1.4-.626 2.619-1.475 3.658-2.548 1.04-1.073 1.859-2.37 2.458-3.89.6-1.52.9-3.13.9-4.829 0-1.699-.3-3.308-.9-4.828-.6-1.52-1.419-2.84-2.458-3.957-1.04-1.118-2.259-1.99-3.658-2.616-1.399-.626-2.858-.939-4.377-.939z" transform="translate(-165 -16)"/>
        </g>
    </g>
</svg>
